<svg xmlns="http://www.w3.org/2000/svg" viewBox="0 0 32 32" fill="none">
  <defs>
    <linearGradient id="grad1" x1="0%" y1="0%" x2="100%" y2="100%">
      <stop offset="0%" style="stop-color:#3B82F6;stop-opacity:1" />
      <stop offset="100%" style="stop-color:#1D4ED8;stop-opacity:1" />
    </linearGradient>
  </defs>
  <rect x="2" y="8" width="28" height="16" rx="3" ry="3" fill="url(#grad1)" stroke="#1E40AF" stroke-width="1"/>
  <rect x="4" y="10" width="3" height="3" rx="1" fill="#E5E7EB"/>
  <rect x="8" y="10" width="3" height="3" rx="1" fill="#E5E7EB"/>
  <rect x="12" y="10" width="3" height="3" rx="1" fill="#E5E7EB"/>
  <rect x="16" y="10" width="3" height="3" rx="1" fill="#E5E7EB"/>
  <rect x="20" y="10" width="3" height="3" rx="1" fill="#E5E7EB"/>
  <rect x="24" y="10" width="4" height="3" rx="1" fill="#E5E7EB"/>
  <rect x="4" y="14" width="3" height="3" rx="1" fill="#E5E7EB"/>
  <rect x="8" y="14" width="3" height="3" rx="1" fill="#E5E7EB"/>
  <rect x="12" y="14" width="3" height="3" rx="1" fill="#E5E7EB"/>
  <rect x="16" y="14" width="3" height="3" rx="1" fill="#E5E7EB"/>
  <rect x="20" y="14" width="3" height="3" rx="1" fill="#E5E7EB"/>
  <rect x="24" y="14" width="4" height="3" rx="1" fill="#E5E7EB"/>
  <rect x="4" y="18" width="4" height="3" rx="1" fill="#E5E7EB"/>
  <rect x="9" y="18" width="14" height="3" rx="1" fill="#10B981"/>
  <rect x="24" y="18" width="4" height="3" rx="1" fill="#E5E7EB"/>
  <circle cx="16" cy="5" r="2" fill="#F59E0B"/>
  <text x="16" y="7" text-anchor="middle" font-family="Arial, sans-serif" font-size="3" font-weight="bold" fill="#FFFFFF">⚡</text>
</svg>
