<svg xmlns="http://www.w3.org/2000/svg" viewBox="0 0 24 24" fill="none" stroke="currentColor" stroke-width="2" stroke-linecap="round" stroke-linejoin="round">
  <rect x="2" y="6" width="20" height="12" rx="2" ry="2"/>
  <rect x="4" y="8" width="2" height="2" rx="0.5"/>
  <rect x="7" y="8" width="2" height="2" rx="0.5"/>
  <rect x="10" y="8" width="2" height="2" rx="0.5"/>
  <rect x="13" y="8" width="2" height="2" rx="0.5"/>
  <rect x="16" y="8" width="2" height="2" rx="0.5"/>
  <rect x="19" y="8" width="1" height="2" rx="0.5"/>
  <rect x="4" y="11" width="2" height="2" rx="0.5"/>
  <rect x="7" y="11" width="2" height="2" rx="0.5"/>
  <rect x="10" y="11" width="2" height="2" rx="0.5"/>
  <rect x="13" y="11" width="2" height="2" rx="0.5"/>
  <rect x="16" y="11" width="2" height="2" rx="0.5"/>
  <rect x="4" y="14" width="2" height="2" rx="0.5"/>
  <rect x="7" y="14" width="8" height="2" rx="0.5"/>
  <rect x="16" y="14" width="2" height="2" rx="0.5"/>
</svg>
